<?xml version="1.0" encoding="UTF-8"?>
<svg width="50px" height="50px" viewBox="0 0 50 50" version="1.1" xmlns="http://www.w3.org/2000/svg" xmlns:xlink="http://www.w3.org/1999/xlink">
    <title>路径@3x</title>
    <g id="修改5-24" stroke="none" stroke-width="1" fill="none" fill-rule="evenodd">
        <g id="首页" transform="translate(-277.000000, -536.000000)">
            <g id="编组-9" transform="translate(20.000000, 471.000000)">
                <g id="编组-7" transform="translate(254.000000, 65.000000)">
                    <g id="编组" transform="translate(3.000000, 0.000000)">
                        <path d="M16,0 L34,0 C42.836556,-1.623249e-15 50,7.163444 50,16 L50,34 C50,42.836556 42.836556,50 34,50 L16,50 C7.163444,50 1.082166e-15,42.836556 0,34 L0,16 C-1.082166e-15,7.163444 7.163444,1.623249e-15 16,0 Z" id="路径" fill="#697FF3"></path>
                        <path d="M25,35 C19.477,35 15,30.523 15,25 C15,19.477 19.477,15 25,15 C30.523,15 35,19.477 35,25 C35,30.523 30.523,35 25,35 Z M25,33 C29.418278,33 33,29.418278 33,25 C33,20.581722 29.418278,17 25,17 C20.581722,17 17,20.581722 17,25 C17,29.418278 20.581722,33 25,33 Z M20,26 L22,26 C22,27.6568542 23.3431458,29 25,29 C26.6568542,29 28,27.6568542 28,26 L30,26 C30,28.7614237 27.7614237,31 25,31 C22.2385763,31 20,28.7614237 20,26 Z M21,24 C20.1715729,24 19.5,23.3284271 19.5,22.5 C19.5,21.6715729 20.1715729,21 21,21 C21.8284271,21 22.5,21.6715729 22.5,22.5 C22.5,23.3284271 21.8284271,24 21,24 Z M29,24 C28.1715729,24 27.5,23.3284271 27.5,22.5 C27.5,21.6715729 28.1715729,21 29,21 C29.8284271,21 30.5,21.6715729 30.5,22.5 C30.5,23.3284271 29.8284271,24 29,24 Z" id="形状" fill="#FFFFFF" fill-rule="nonzero"></path>
                    </g>
                </g>
            </g>
        </g>
    </g>
</svg>